<?xml version="1.0" encoding="utf-8"?>
<!-- Generator: Adobe Illustrator 14.0.0, SVG Export Plug-In . SVG Version: 6.00 Build 43363)  -->
<!DOCTYPE svg PUBLIC "-//W3C//DTD SVG 1.0//EN" "http://www.w3.org/TR/2001/REC-SVG-20010904/DTD/svg10.dtd">
<svg version="1.0" id="random_line" xmlns="http://www.w3.org/2000/svg" xmlns:xlink="http://www.w3.org/1999/xlink" x="0px" y="0px"
	 width="500.0px" height="500.0px" viewBox="0 0 500.0 500.0" 
enable-background="new 0 0 500.0 500.0" xml:space="preserve">
<polyline opacity="0.5" fill="none" stroke="dodgerblue" 
stroke-width="0.5" 
points="
313.843,115.107 316.557,116.031 319.121,117.416 321.533,119.259 323.790,121.557 	
325.889,124.303 327.828,127.492 329.606,131.117 331.222,135.170 332.674,139.640 	
333.963,144.517 335.089,149.790 336.053,155.447 336.856,161.474 337.500,167.859 	
337.986,174.587 338.317,181.644 338.497,189.013 338.527,196.681 338.412,204.630 	
338.155,212.846 337.761,221.312 337.234,230.013 336.577,238.932 335.797,248.054 	
334.898,257.364 333.884,266.847 332.762,276.487 331.536,286.271 330.211,296.185 	
328.792,306.215 327.286,316.350 325.697,326.576 324.030,336.883 322.290,347.261 	
320.482,357.698 318.611,368.186 316.680,378.717 314.696,389.283 312.661,399.876 	
310.579,410.491 308.453,421.121 306.287,431.762 304.083,442.409 301.843,450.000 	
299.569,439.350 297.263,428.703 294.925,418.062 292.556,407.432 290.156,396.817 	
287.726,386.220 285.265,375.648 282.772,365.106 280.247,354.599 277.689,344.136 	
275.097,333.723 272.471,323.370 269.810,313.086 267.113,302.880 264.380,292.764 	
261.612,282.749 258.808,272.847 255.967,263.071 253.092,253.435 250.182,243.953 	
247.238,234.639 244.262,225.509 241.254,216.577 238.217,207.860 235.152,199.373 	
232.061,191.133 228.947,183.156 225.813,175.458 222.661,168.056 219.494,160.965 	
216.315,154.202 213.129,147.783 209.938,141.721 206.746,136.033 203.558,130.732 	
200.377,125.831 197.208,121.342 194.055,117.279 190.923,113.651 187.815,110.468 	
184.736,107.740 181.691,105.473 178.684,103.674 175.719,102.349 172.801,101.502 	
169.934,101.135 167.122,101.250 164.370,101.846 161.680,102.924 159.056,104.479 	
156.502,106.509 154.021,109.009 151.616,111.972 149.290,115.390 147.045,119.256 	
144.883,123.560 142.806,128.290 140.817,133.435 138.915,138.984 137.102,144.921 	
135.380,151.234 133.748,157.909 132.206,164.928 130.755,172.278 129.393,179.942 	
128.121,187.904 126.938,196.148 125.841,204.657 124.831,213.414 123.904,222.403 	
123.060,231.609 122.296,241.015 121.610,250.605 120.999,260.364 120.462,270.277 	
119.995,280.331 119.596,290.510 119.261,300.803 118.989,311.196 118.776,321.678 	
118.619,332.237 118.515,342.864 118.461,353.548 118.455,364.281 118.494,375.055 	
118.574,385.863 118.695,396.697 118.854,407.552 119.048,418.422 119.276,429.304 	
119.538,440.192 119.832,450.000 120.158,439.108 120.516,428.220 120.907,417.338 	
121.331,406.467 121.789,395.612 122.282,384.778 122.813,373.971 123.383,363.196 	
123.995,352.462 124.650,341.777 125.351,331.148 126.100,320.586 126.900,310.100 	
127.752,299.702 128.660,289.403 129.624,279.216 130.649,269.153 131.734,259.230 	
132.883,249.459 134.096,239.855 135.376,230.434 136.724,221.212 138.141,212.203 	
139.628,203.426 141.186,194.895 142.815,186.628 144.516,178.641 146.288,170.951 	
148.132,163.573 150.047,156.524 152.033,149.820 154.088,143.476 156.212,137.507 	
158.402,131.926 160.658,126.748 162.977,121.985 165.357,117.649 167.795,113.751 	
170.290,110.301 172.837,107.307 175.435,104.778 178.080,102.720 180.767,101.138 	
183.495,100.036 186.259,99.418 189.055,99.284 191.880,99.634 194.729,100.468 	
197.599,101.783 200.484,103.575 203.383,105.840 206.289,108.570 209.200,111.758 	
212.111,115.396 215.019,119.474 217.919,123.981 220.809,128.906 223.683,134.236 	
226.541,139.959 229.377,146.058 232.189,152.521 234.974,159.333 237.730,166.476 	
240.454,173.936 243.143,181.696 245.797,189.741 248.413,198.053 250.990,206.615 	
253.526,215.413 256.020,224.429 258.472,233.647 260.882,243.053 263.248,252.630 	
265.570,262.364 267.849,272.241 270.086,282.246 272.279,292.368 274.431,302.592 	
276.541,312.908 278.612,323.305 280.643,333.772 282.635,344.299 284.591,354.879 	
286.512,365.502 288.397,376.162 290.249,386.852 292.069,397.566 293.857,408.299 	
295.613,419.047 297.338,429.804 299.032,440.568 300.694,450.000 302.322,439.233 	
303.915,428.468 305.473,417.711 306.991,406.965 308.469,396.237 309.902,385.531 	
311.288,374.854 312.624,364.213 313.904,353.616 315.126,343.071 316.286,332.588 	
317.378,322.177 318.400,311.848 319.345,301.613 320.211,291.484 320.991,281.474 	
321.683,271.596 322.282,261.865 322.782,252.294 323.180,242.898 323.472,233.694 	
323.654,224.696 323.721,215.920 323.671,207.383 323.499,199.100 323.203,191.088 	
322.779,183.362 322.226,175.940 321.540,168.836 320.719,162.066 319.762,155.644 	
318.668,149.586 317.435,143.904 316.063,138.613 314.552,133.725 312.902,129.251 	
311.114,125.202 309.189,121.587 307.128,118.415 304.933,115.695 302.606,113.431 	
300.150,111.629 297.568,110.294 294.863,109.428 292.040,109.032 289.101,109.106 	
286.052,109.650 282.897,110.661 279.640,112.135 276.288,114.068 272.845,116.453 	
269.316,119.283 265.708,122.550 262.025,126.245 258.274,130.357 254.461,134.874 	
250.591,139.786 246.670,145.078 242.703,150.739 238.697,156.752 234.657,163.105 	
230.588,169.781 226.495,176.765 222.384,184.043 218.260,191.597 214.126,199.413 	
209.988,207.474 205.849,215.765 201.714,224.269 197.586,232.973 193.467,241.860 	
189.362,250.916 185.273,260.126 181.202,269.478 177.151,278.957 173.122,288.551 	
169.117,298.249 165.137,308.038 161.183,317.909 157.256,327.850 153.355,337.854 	
149.482,347.911 145.637,358.015 141.820,368.157 138.031,378.332 134.270,388.534 	
130.538,398.759 126.836,409.002 123.163,419.258 119.521,429.524 115.913,439.797 	
112.340,450.000 108.804,439.723 105.309,429.449 101.858,419.183 98.455,408.929 	
95.104,398.693 91.809,388.481 88.577,378.300 85.412,368.157 82.320,358.060 	
79.306,348.019 76.378,338.042 73.542,328.141 70.803,318.325 68.170,308.607 	
65.648,298.998 63.245,289.512 60.968,280.161 58.823,270.959 56.818,261.920 	
54.960,253.060 53.255,244.391 51.709,235.930 50.330,227.692 50.000,219.691 	
51.384,211.943 52.946,204.461 54.690,197.260 56.615,190.352 58.723,183.751 	
61.014,177.470 63.488,171.520 66.144,165.914 68.981,160.663 71.997,155.778 	
75.190,151.267 78.557,147.141 82.096,143.408 85.803,140.075 89.673,137.147 	
93.702,134.632 97.886,132.534 102.219,130.855 106.695,129.598 111.308,128.765 	
116.052,128.356 120.919,128.371 125.904,128.807 131.000,129.662 136.197,130.933 	
141.490,132.613 146.870,134.698 152.330,137.182 157.862,140.055 163.458,143.312 	
169.111,146.941 174.812,150.934 180.555,155.280 186.332,159.968 192.135,164.987 	
197.958,170.325 203.794,175.970 209.636,181.908 215.478,188.128 221.313,194.616 	
227.137,201.359 232.943,208.344 238.726,215.559 244.483,222.989 250.207,230.623 	
255.895,238.447 261.544,246.450 267.150,254.619 272.709,262.943 278.219,271.410 	
283.677,280.009 289.081,288.731 294.429,297.565 299.718,306.502 304.946,315.533 	
310.113,324.649 315.216,333.843 320.253,343.107 325.223,352.434 330.123,361.818 	
334.953,371.252 339.708,380.730 344.388,390.248 348.989,399.798 353.507,409.377 	
357.939,418.978 362.282,428.596 366.531,438.225 370.681,447.860 374.727,450.000 	
378.663,440.364 382.485,430.732 386.187,421.112 389.762,411.510 393.205,401.934 	
396.509,392.392 399.667,382.893 402.672,373.446 405.518,364.059 408.196,354.743 	
410.701,345.509 413.023,336.365 415.158,327.324 417.096,318.398 418.831,309.597 	
420.357,300.933 421.666,292.420 422.752,284.069 423.610,275.893 424.232,267.905 	
424.614,260.117 424.751,252.542 424.638,245.193 424.271,238.083 423.647,231.223 	
422.762,224.625 421.614,218.302 420.201,212.264 418.522,206.522 416.577,201.087 	
414.366,195.969 411.888,191.176 409.147,186.716 406.143,182.599 402.880,178.830 	
399.362,175.416 395.591,172.362 391.574,169.673 387.314,167.352 382.819,165.402 	
378.095,163.825 373.148,162.620 367.987,161.790 362.618,161.332 357.051,161.244 	
351.294,161.524 345.356,162.168 339.246,163.172 332.974,164.530 326.550,166.237 	
319.984,168.286 313.285,170.668 306.463,173.378 299.528,176.405 292.491,179.741 	
285.361,183.377 278.148,187.302 270.860,191.506 263.509,195.978 256.101,200.709 	
248.647,205.686 241.155,210.900 233.632,216.339 226.087,221.992 218.527,227.848 	
210.958,233.897 203.389,240.127 195.825,246.529 188.271,253.092 180.734,259.806 	
173.219,266.662 165.731,273.651 158.274,280.764 150.852,287.993 143.470,295.329 	
136.132,302.766 128.842,310.297 121.602,317.914 114.418,325.612 107.292,333.385 	
100.228,341.227 93.231,349.134 86.305,357.101 79.453,365.122 72.682,373.193 	
 "/></svg>
